<svg id="visual" viewBox="0 0 900 30" width="900" height="30" xmlns="http://www.w3.org/2000/svg" xmlns:xlink="http://www.w3.org/1999/xlink" version="1.1"><path d="M0 12L5.3 12.5C10.7 13 21.3 14 32 14.5C42.7 15 53.3 15 64 14.3C74.7 13.7 85.3 12.3 96.2 11.5C107 10.7 118 10.3 128.8 10.8C139.7 11.3 150.3 12.7 161 12.7C171.7 12.7 182.3 11.3 193 10.5C203.7 9.7 214.3 9.3 225 10.3C235.7 11.3 246.3 13.7 257 13.7C267.7 13.7 278.3 11.3 289 10.2C299.7 9 310.3 9 321.2 9C332 9 343 9 353.8 10.3C364.7 11.7 375.3 14.3 386 15.8C396.7 17.3 407.3 17.7 418 16.5C428.7 15.3 439.3 12.7 450 12C460.7 11.3 471.3 12.7 482 12.3C492.7 12 503.3 10 514 10.2C524.7 10.3 535.3 12.7 546.2 13.8C557 15 568 15 578.8 14.2C589.7 13.3 600.3 11.7 611 11.5C621.7 11.3 632.3 12.7 643 14C653.7 15.3 664.3 16.7 675 16C685.7 15.3 696.3 12.7 707 12.3C717.7 12 728.3 14 739 14.2C749.7 14.3 760.3 12.7 771.2 12.2C782 11.7 793 12.3 803.8 13C814.7 13.7 825.3 14.3 836 15.3C846.7 16.3 857.3 17.7 868 17.3C878.7 17 889.3 15 894.7 14L900 13L900 31L894.7 31C889.3 31 878.7 31 868 31C857.3 31 846.7 31 836 31C825.3 31 814.7 31 803.8 31C793 31 782 31 771.2 31C760.3 31 749.7 31 739 31C728.3 31 717.7 31 707 31C696.3 31 685.7 31 675 31C664.3 31 653.7 31 643 31C632.3 31 621.7 31 611 31C600.3 31 589.7 31 578.8 31C568 31 557 31 546.2 31C535.3 31 524.7 31 514 31C503.3 31 492.7 31 482 31C471.3 31 460.7 31 450 31C439.3 31 428.7 31 418 31C407.3 31 396.7 31 386 31C375.3 31 364.7 31 353.8 31C343 31 332 31 321.2 31C310.3 31 299.7 31 289 31C278.3 31 267.7 31 257 31C246.3 31 235.7 31 225 31C214.3 31 203.7 31 193 31C182.3 31 171.7 31 161 31C150.3 31 139.7 31 128.8 31C118 31 107 31 96.2 31C85.3 31 74.7 31 64 31C53.3 31 42.7 31 32 31C21.3 31 10.7 31 5.3 31L0 31Z" fill="#5755d9" stroke-linecap="round" stroke-linejoin="miter"></path></svg>